<?xml version="1.0" encoding="UTF-8" standalone="no"?>
<!DOCTYPE svg PUBLIC "-//W3C//DTD SVG 1.1//EN" "http://www.w3.org/Graphics/SVG/1.1/DTD/svg11.dtd">
<svg width="100%" height="100%" viewBox="0 0 3107 1027" version="1.1" xmlns="http://www.w3.org/2000/svg" xmlns:xlink="http://www.w3.org/1999/xlink" xml:space="preserve" xmlns:serif="http://www.serif.com/" style="fill-rule:evenodd;clip-rule:evenodd;stroke-linejoin:round;stroke-miterlimit:2;">
    <g transform="matrix(1,0,0,1,-101,-191)">
        <g transform="matrix(4.16667,0,0,4.16667,0,0)">
            <g transform="matrix(0.24,0,0,0.24,0,0)">
                <rect x="101" y="191" width="3107" height="1027" style="fill-opacity:0;"/>
            </g>
            <g transform="matrix(0.877725,0,0,0.877725,71.5643,26.5122)">
                <g transform="matrix(1,0,0,1,50.5034,158.503)">
                    <path d="M0,-87.569L0,-17.616L-0.075,-9.474L0.175,-2.428C0.788,4.334 3.306,8.277 7.722,9.393C10.788,10.233 13.109,10.658 14.669,10.658C16.354,10.658 17.208,11.139 17.278,12.138C17.391,13.551 16.386,14.256 14.331,14.256C13.387,14.256 11.501,14.145 8.712,13.93C6.938,13.809 4.019,13.76 0,13.76L-5.954,13.587L-12.482,13.69C-15.789,13.69 -18.269,13.785 -19.953,14.006C-22.132,14.281 -23.726,14.431 -24.721,14.431C-26.175,14.431 -26.896,13.884 -26.896,12.79C-26.896,11.75 -25.981,11.095 -24.137,10.828C-19.773,10.148 -16.812,7.693 -15.212,3.448C-13.618,-0.792 -12.825,-8.444 -12.825,-19.502L-12.825,-70.339C-12.825,-82.063 -13.514,-89.48 -14.921,-92.57C-16.311,-95.667 -19.806,-97.531 -25.391,-98.154C-26.896,-98.268 -27.632,-98.825 -27.571,-99.864C-27.509,-101.171 -26.435,-101.825 -24.312,-101.825C-23.246,-101.825 -21.831,-101.685 -20.024,-101.407C-16.515,-100.91 -13.604,-100.655 -11.311,-100.655C-7.741,-100.655 -2.546,-100.968 4.283,-101.582C7.793,-101.863 10.679,-102 12.916,-102C24.59,-102 34.081,-99.19 41.358,-93.569C48.661,-87.952 52.297,-80.623 52.297,-71.567C52.297,-60.61 47.841,-51.99 38.907,-45.654C32.189,-40.981 25.094,-38.626 17.609,-38.626C14.08,-38.626 10.863,-39.014 7.925,-39.777C4.986,-40.547 3.584,-41.362 3.685,-42.235C3.796,-42.914 4.325,-43.239 5.278,-43.239C5.712,-43.239 6.287,-43.162 6.949,-42.985C8.232,-42.603 10.297,-42.4 13.151,-42.4C21.175,-42.4 27.59,-44.617 32.405,-49.045C37.241,-53.472 39.647,-59.351 39.647,-66.703C39.647,-75.16 36.472,-82.178 30.118,-87.726C23.75,-93.275 15.708,-96.041 5.934,-96.041C3.713,-96.041 2.175,-95.631 1.345,-94.785C0.509,-93.949 0.086,-92.359 0.086,-90.008L0,-87.569Z" style="fill:white;fill-rule:nonzero;"/>
                </g>
                <g transform="matrix(1,0,0,1,155.141,130.04)">
                    <path d="M0,-3.63L7.311,-3.63C12.958,-3.63 17.406,-5.177 20.651,-8.293C23.879,-11.399 25.5,-15.657 25.5,-21.047C25.5,-27.323 23.292,-32.482 18.891,-36.526C14.491,-40.556 8.887,-42.583 2.061,-42.583C-0.48,-42.583 -2.246,-42.164 -3.217,-41.309C-4.188,-40.469 -4.668,-38.956 -4.668,-36.744L-4.598,-34.608L-4.598,-8.293C-4.598,-6.26 -4.335,-4.98 -3.796,-4.426C-3.255,-3.888 -2,-3.63 0,-3.63M18.981,-2.219L36.807,24.075L38.878,27.162C44.383,35.233 49.477,39.432 54.119,39.724L56.194,39.857C56.963,39.903 57.327,40.205 57.283,40.781C57.24,41.431 56.278,42.031 54.405,42.563C52.53,43.075 50.415,43.337 48.042,43.337C44.174,43.337 40.699,42.272 37.613,40.144C34.523,38.017 31.396,34.545 28.204,29.72L12.118,5.161L11.227,3.736C10.198,1.985 8.504,1.087 6.188,1.087L-2.401,1.087L-3.834,1.356C-4.354,1.66 -4.598,2.35 -4.598,3.421L-4.598,23.648L-4.539,26.238C-4.539,29.953 -4.354,32.503 -3.999,33.854C-3.631,35.225 -2.75,36.446 -1.376,37.526C0.477,38.985 3.339,39.922 7.212,40.32C8.764,40.478 9.562,40.96 9.604,41.751C9.689,42.608 8.977,43.026 7.477,43.026C6.878,43.026 5.604,42.932 3.67,42.724C1.891,42.546 -0.84,42.452 -4.539,42.452L-10.741,42.38L-14.108,42.44C-15.566,42.44 -17.335,42.546 -19.396,42.763C-21.081,42.936 -22.241,43.026 -22.892,43.026C-23.958,43.026 -24.51,42.582 -24.51,41.702C-24.51,41.074 -23.958,40.648 -22.892,40.442C-19.448,39.794 -17.189,38.235 -16.104,35.747C-15.023,33.268 -14.482,28.387 -14.482,21.093L-14.482,-25.366L-14.618,-32.095C-14.618,-38.831 -16.972,-42.583 -21.665,-43.359L-24.692,-43.805C-26.081,-44.048 -26.779,-44.562 -26.779,-45.323C-26.779,-46.211 -26.047,-46.646 -24.561,-46.646C-24.227,-46.646 -22.712,-46.56 -20.043,-46.385C-18.486,-46.265 -16.57,-46.192 -14.293,-46.192C-12.32,-46.192 -8.948,-46.343 -4.164,-46.646C-0.708,-46.857 2.326,-46.967 4.958,-46.967C14.858,-46.967 22.325,-45.109 27.368,-41.377C32.41,-37.641 34.939,-32.095 34.939,-24.734C34.939,-15.022 29.618,-7.528 18.981,-2.219" style="fill:white;fill-rule:nonzero;"/>
                </g>
                <g transform="matrix(1,0,0,1,250.525,162.133)">
                    <path d="M0,-68.132L0,-42.06C0,-40.063 0.197,-38.885 0.56,-38.471C0.929,-38.045 2.022,-37.859 3.872,-37.859L13.82,-37.859C18.338,-37.859 21.934,-38.097 24.564,-38.623C26.886,-39.103 28.396,-39.723 29.08,-40.489C29.768,-41.277 30.381,-43.072 30.958,-45.919C31.173,-47.001 31.703,-47.527 32.618,-47.47C33.432,-47.429 33.854,-46.85 33.854,-45.728C33.854,-45.43 33.838,-44.958 33.791,-44.312C33.4,-40.149 33.208,-36.349 33.208,-32.904C33.208,-30.284 33.34,-27.693 33.603,-25.119C33.689,-24.248 33.732,-23.633 33.732,-23.233C33.732,-22.171 33.311,-21.628 32.471,-21.628C31.551,-21.628 30.99,-22.1 30.816,-23.047L30.434,-24.864C29.91,-27.738 28.896,-29.699 27.344,-30.736C25.792,-31.782 23.174,-32.289 19.471,-32.289L5.226,-32.289C3.127,-32.289 1.711,-32.079 0.999,-31.644C0.3,-31.21 -0.052,-30.355 -0.052,-29.062L0,-26.924L0,-3.099C0,0.566 0.663,2.853 1.968,3.76C3.282,4.667 6.598,5.105 11.939,5.105C28.843,5.105 39.699,1.301 44.519,-6.324C44.995,-7.058 45.491,-7.44 45.971,-7.484C46.764,-7.529 47.173,-6.973 47.173,-5.81C47.173,-3.028 45.596,0.316 42.457,4.168C38.67,8.802 33.877,11.122 28.094,11.122C26.857,11.122 25.179,11.035 23.07,10.858C14.834,10.085 8.028,9.703 2.656,9.703C-4.882,9.703 -10.208,9.957 -13.303,10.49C-14.944,10.782 -16.053,10.933 -16.652,10.933C-18.04,10.933 -18.733,10.47 -18.733,9.537C-18.733,8.82 -18.185,8.316 -17.048,8.018L-14.586,7.321C-11.497,6.447 -9.949,3.43 -9.949,-1.754L-9.882,-5.96L-9.882,-60.627C-9.882,-66.789 -10.558,-70.937 -11.916,-73.086C-13.276,-75.215 -15.912,-76.293 -19.832,-76.293C-21.078,-76.293 -21.704,-76.688 -21.704,-77.483C-21.704,-78.671 -20.738,-79.254 -18.793,-79.254C-17.728,-79.254 -16.28,-79.151 -14.463,-78.932C-8.309,-78.252 -0.905,-77.903 7.759,-77.903C13.011,-77.903 17.659,-77.99 21.711,-78.167L30.886,-78.608C33.423,-78.697 34.977,-78.784 35.527,-78.87C36.697,-79.045 37.57,-79.134 38.124,-79.134C39.542,-79.134 40.258,-78.513 40.258,-77.265C40.258,-76.872 40.188,-76.386 40.064,-75.782C39.938,-75.178 39.754,-73.453 39.542,-70.628L39.276,-66.84C39.07,-64.346 38.852,-62.794 38.638,-62.164C38.4,-61.546 37.918,-61.212 37.188,-61.172C36.329,-61.126 35.93,-61.781 35.93,-63.109L35.93,-64.792C35.93,-66.159 35.666,-67.486 35.155,-68.735C34.334,-70.668 32.689,-71.969 30.17,-72.607C27.693,-73.252 23.113,-73.574 16.443,-73.574L6.319,-73.574C3.665,-73.574 1.937,-73.245 1.164,-72.563C0.386,-71.898 0,-70.416 0,-68.132" style="fill:white;fill-rule:nonzero;"/>
                </g>
                <g transform="matrix(1,0,0,1,348.073,173.765)">
                    <path d="M0,-91.601C4.598,-91.601 8.49,-90.939 11.683,-89.598L16.146,-87.721C16.528,-87.554 16.924,-87.478 17.307,-87.478C17.831,-87.478 18.343,-87.684 18.868,-88.122L19.755,-88.892C19.885,-89.063 20.122,-89.141 20.48,-89.141C21.56,-89.187 22.104,-88.138 22.104,-85.993C22.104,-85.245 22.363,-83.078 22.93,-79.459L23.947,-72.812C24.178,-71.379 24.297,-70.497 24.297,-70.16C24.297,-68.815 23.83,-68.151 22.904,-68.151C22.198,-68.151 21.503,-69.181 20.792,-71.266C19.249,-75.933 16.097,-79.77 11.363,-82.799C6.626,-85.825 1.334,-87.335 -4.51,-87.335C-9.157,-87.335 -13.039,-85.975 -16.128,-83.235C-19.251,-80.499 -20.794,-77.074 -20.794,-72.987C-20.794,-69.354 -19.808,-66.224 -17.766,-63.603C-16.025,-61.355 -14.086,-59.725 -11.991,-58.685C-9.912,-57.655 -4.783,-55.77 3.394,-53.067C19.3,-47.858 27.269,-39.317 27.269,-27.435C27.269,-19.37 24.32,-12.801 18.477,-7.673C12.618,-2.549 5.113,0 -4.09,0C-7.388,0 -11.049,-0.474 -15.025,-1.416C-19.021,-2.36 -21.926,-3.454 -23.789,-4.719C-24.553,-5.217 -25.067,-5.775 -25.336,-6.36C-25.587,-6.926 -25.977,-8.431 -26.492,-10.838C-26.582,-11.186 -27.123,-13.15 -28.114,-16.73C-29.227,-20.602 -29.774,-23.357 -29.774,-24.993C-29.774,-26.289 -29.336,-26.912 -28.468,-26.857C-27.68,-26.825 -26.974,-25.761 -26.354,-23.701C-24.817,-18.335 -21.54,-13.842 -16.57,-10.219C-11.583,-6.579 -6.177,-4.77 -0.335,-4.77C5.584,-4.77 10.608,-6.512 14.71,-10.012C18.802,-13.511 20.858,-17.749 20.858,-22.759C20.858,-27.537 18.971,-31.568 15.188,-34.839C13.248,-36.533 7.663,-38.914 -1.591,-42.02C-11.147,-45.256 -17.907,-48.825 -21.888,-52.744C-25.87,-56.651 -27.854,-61.73 -27.854,-67.966C-27.854,-74.947 -25.251,-80.628 -20.071,-85.024C-14.873,-89.412 -8.188,-91.601 0,-91.601" style="fill:white;fill-rule:nonzero;"/>
                </g>
                <g transform="matrix(1,0,0,1,420.473,101.747)">
                    <path d="M0,52.947L0.072,55.212C0.072,60.395 0.566,63.456 1.548,64.409C2.539,65.35 5.784,65.819 11.265,65.819C19.316,65.819 26.322,64.861 32.256,62.941C38.187,61.039 41.974,58.508 43.615,55.359C44.209,54.201 44.813,53.616 45.41,53.616C46.102,53.616 46.422,54.042 46.388,54.899C46.218,57.731 44.813,60.84 42.186,64.231C38.481,68.913 32.454,71.243 24.144,71.243C22.761,71.243 21.17,71.197 19.341,71.056L12.374,70.535C8.277,70.243 3.952,70.089 -0.627,70.089C-5.944,70.089 -10.373,70.343 -13.942,70.875C-15.464,71.072 -16.67,71.204 -17.565,71.243C-18.649,71.3 -19.201,70.908 -19.201,70.112C-19.201,69.451 -18.589,68.938 -17.437,68.603C-14.436,67.706 -12.435,66.361 -11.398,64.627C-10.4,62.878 -9.885,59.939 -9.885,55.786L-9.813,52.814L-9.813,-5.032C-9.813,-10.763 -12.137,-14.114 -16.797,-15.066L-19.709,-15.64C-20.74,-15.86 -21.25,-16.275 -21.25,-16.906C-21.25,-17.879 -20.519,-18.353 -19.062,-18.353C-18.07,-18.353 -16.717,-18.267 -15.015,-18.093C-12.084,-17.84 -8.792,-17.708 -5.136,-17.708C-1.187,-17.708 2.419,-17.82 5.63,-18.042C7.265,-18.127 8.196,-18.173 8.397,-18.173C9.449,-18.173 9.955,-17.846 9.955,-17.221C9.955,-16.295 9.326,-15.684 8.071,-15.389L5.822,-14.865C1.949,-13.923 0,-10.059 0,-3.286L0,52.947Z" style="fill:white;fill-rule:nonzero;"/>
                </g>
                <g transform="matrix(1,0,0,1,526.554,169.569)">
                    <path d="M0,-83.202C-10.01,-83.202 -17.943,-79.842 -23.815,-73.107C-29.707,-66.382 -32.666,-57.317 -32.666,-45.922C-32.666,-32.895 -28.896,-21.913 -21.373,-12.961C-13.854,-4.007 -4.607,0.459 6.334,0.459C16.329,0.459 24.586,-3.19 31.115,-10.48C37.604,-17.776 40.864,-27.006 40.864,-38.181C40.864,-51.042 36.977,-61.765 29.16,-70.344C21.378,-78.92 11.642,-83.202 0,-83.202M4.176,-87.405C17.647,-87.405 28.709,-83.245 37.346,-74.914C45.993,-66.581 50.304,-55.931 50.304,-42.919C50.304,-29.154 45.944,-17.852 37.249,-9.034C28.549,-0.202 17.411,4.203 3.84,4.203C-10.065,4.203 -21.306,-0.013 -29.903,-8.459C-38.49,-16.886 -42.792,-27.947 -42.792,-41.636C-42.792,-47.582 -41.666,-53.459 -39.4,-59.297C-37.133,-65.116 -34.094,-70.002 -30.254,-73.912C-26.221,-78.047 -21.095,-81.325 -14.881,-83.759C-8.687,-86.183 -2.344,-87.405 4.176,-87.405" style="fill:white;fill-rule:nonzero;"/>
                </g>
                <g transform="matrix(1,0,0,1,660.231,137.347)">
                    <path d="M0,-14.966L12.934,15.684C14.36,19.088 15.391,20.787 16.041,20.787C16.597,20.787 17.314,19.792 18.169,17.813C18.42,17.17 18.97,15.98 19.772,14.243C25.442,1.674 30.702,-11.012 35.579,-23.82C40.453,-36.617 42.894,-44.155 42.894,-46.461C42.894,-48.478 41.061,-49.89 37.405,-50.666C35.372,-51.126 34.361,-51.824 34.361,-52.752C34.361,-53.643 34.989,-54.085 36.235,-54.085C36.452,-54.085 36.839,-54.07 37.405,-54.024C39.22,-53.893 41.815,-53.823 45.18,-53.823C49.104,-53.823 52.057,-53.947 53.995,-54.183C55.456,-54.38 56.486,-54.469 57.036,-54.469C57.989,-54.469 58.456,-54.006 58.456,-53.072C58.456,-52.315 57.831,-51.685 56.585,-51.174C54.829,-50.482 53.514,-49.202 52.646,-47.303L49.084,-39.612C47.631,-36.417 45.354,-31.201 42.231,-23.958C39.056,-16.334 36.611,-10.618 34.95,-6.824L27.196,10.695L22.041,22.908L18.92,29.961L17.503,33.258L16.537,35.194C15.428,37.569 14.311,38.752 13.201,38.752C12.282,38.752 11.366,37.714 10.476,35.643L-5.61,-1.784L-21.788,36.747C-22.544,38.605 -23.332,39.503 -24.138,39.464C-25.252,39.417 -26.487,37.731 -27.854,34.427L-54.536,-29.454L-56.219,-33.72C-58.539,-39.574 -60.572,-43.66 -62.316,-45.947C-64.066,-48.223 -66.284,-49.669 -68.936,-50.266L-71.592,-50.846C-72.497,-51.067 -72.95,-51.6 -72.95,-52.436C-72.95,-53.446 -72.29,-53.953 -70.998,-53.953C-70.614,-53.953 -70.072,-53.912 -69.374,-53.823C-67.699,-53.605 -65.544,-53.5 -62.917,-53.5L-54.945,-53.44L-49.503,-53.573C-47.308,-53.744 -45.96,-53.823 -45.486,-53.823C-44.337,-53.823 -43.743,-53.299 -43.743,-52.244C-43.743,-51.442 -44.224,-50.896 -45.17,-50.595C-47.879,-49.82 -49.237,-48.562 -49.237,-46.836C-49.237,-44.725 -47.667,-40.065 -44.529,-32.856C-43.081,-29.577 -40.762,-24.003 -37.583,-16.099C-34.493,-8.414 -32.313,-3.108 -31.029,-0.176L-24.704,13.799C-24.03,15.355 -23.552,16.393 -23.294,16.913L-22.531,18.267C-22.06,19.219 -21.69,19.688 -21.437,19.688C-21.128,19.688 -20.69,19.002 -20.073,17.621L-19.751,16.853L-8.67,-9.151C-9.577,-11.307 -10.1,-12.6 -10.275,-13.036L-16.03,-26.508L-21.388,-39.069C-23.427,-43.649 -24.97,-46.565 -26.05,-47.812C-27.134,-49.07 -28.822,-49.835 -31.143,-50.141C-34.686,-50.603 -36.395,-51.391 -36.327,-52.496C-36.274,-53.337 -35.366,-53.773 -33.606,-53.773L-31.073,-53.693L-18.511,-53.308C-16.695,-53.308 -14.558,-53.44 -12.087,-53.693C-10.684,-53.823 -9.751,-53.893 -9.326,-53.893C-7.804,-53.893 -7.067,-53.381 -7.067,-52.376C-7.067,-51.703 -7.765,-51.074 -9.175,-50.535C-11.251,-49.669 -12.285,-48.282 -12.285,-46.381C-12.285,-44.74 -11.516,-42.08 -9.972,-38.416L-3.138,-22.204C-2.558,-23.55 -2.142,-24.537 -1.817,-25.187C3.137,-36.242 5.603,-43.452 5.603,-46.774C5.603,-48.762 4.194,-50.009 1.357,-50.535C-0.731,-50.908 -1.752,-51.619 -1.752,-52.632C-1.752,-53.479 -1.011,-53.893 0.507,-53.893C0.755,-53.893 1.599,-53.848 3.022,-53.789C4.903,-53.682 7.122,-53.643 9.646,-53.643C12.391,-53.643 14.503,-53.721 15.97,-53.885C17.21,-54.024 18.09,-54.085 18.613,-54.085C19.896,-54.085 20.521,-53.58 20.521,-52.568C20.521,-51.843 19.781,-51.284 18.272,-50.846C16.631,-50.344 15.456,-49.565 14.692,-48.53C13.929,-47.481 12.568,-44.647 10.595,-39.999L0,-14.966Z" style="fill:white;fill-rule:nonzero;"/>
                </g>
                <g transform="matrix(1,0,0,1,747.633,71.2912)">
                    <path d="M0,-1.535L1.904,-1.535C4.909,-1.535 6.444,-2.973 6.444,-5.88C6.444,-7.337 5.867,-8.566 4.754,-9.571C3.617,-10.556 2.24,-11.055 0.589,-11.055C-0.464,-11.055 -0.988,-10.627 -0.988,-9.815L-0.949,-9.239L-0.949,-2.485C-0.949,-2.051 -0.921,-1.752 -0.816,-1.683C-0.728,-1.58 -0.447,-1.535 0,-1.535M5.381,-0.81L9.943,5.793L10.495,6.604C11.907,8.665 13.179,9.73 14.33,9.779L14.882,9.798C15.238,9.826 15.395,10.001 15.377,10.302C15.343,10.861 14.438,11.152 12.704,11.152C10.701,11.152 8.905,9.937 7.287,7.521L3.023,1.154L2.787,0.759C2.551,0.392 2.207,0.201 1.646,0.201L-0.623,0.201L-0.869,0.234L-0.949,0.576L-0.949,6.491C-0.949,7.799 -0.799,8.665 -0.431,9.074C-0.092,9.481 0.722,9.763 1.958,9.888C2.518,9.937 2.787,10.156 2.811,10.506C2.811,10.88 2.551,11.064 2.009,11.064C1.839,11.064 1.495,11.038 0.966,10.968C0.548,10.904 -0.182,10.887 -1.166,10.887L-3.722,10.887C-4.034,10.887 -4.497,10.925 -5.108,11C-5.562,11.038 -5.861,11.064 -5.982,11.064C-6.467,11.064 -6.733,10.88 -6.733,10.48C-6.733,10.199 -6.521,10.008 -6.095,9.921C-5.231,9.718 -4.671,9.318 -4.443,8.766C-4.185,8.213 -4.076,7.006 -4.076,5.131L-4.076,-6.884L-4.092,-8.627C-4.092,-10.242 -4.671,-11.14 -5.789,-11.298L-6.571,-11.419C-7.086,-11.509 -7.322,-11.714 -7.322,-12.061C-7.322,-12.424 -7.044,-12.622 -6.538,-12.622C-6.411,-12.622 -5.982,-12.59 -5.298,-12.534C-4.948,-12.521 -4.443,-12.503 -3.797,-12.503C-3.274,-12.503 -2.373,-12.544 -1.146,-12.622C-0.223,-12.674 0.589,-12.706 1.272,-12.706C6.725,-12.706 9.43,-10.714 9.43,-6.719C9.43,-4.196 8.065,-2.223 5.381,-0.81M2.856,-18.784C-2.142,-18.784 -6.411,-17.031 -9.939,-13.508C-13.448,-9.971 -15.21,-5.733 -15.21,-0.76C-15.21,4.232 -13.448,8.482 -9.939,12.006C-6.411,15.521 -2.142,17.284 2.856,17.284C7.824,17.284 12.081,15.521 15.607,12.006C19.145,8.482 20.91,4.232 20.91,-0.76C20.91,-5.752 19.145,-9.99 15.625,-13.531C12.098,-17.031 7.838,-18.784 2.856,-18.784M2.856,-21.019C8.457,-21.019 13.25,-19.046 17.193,-15.104C21.137,-11.14 23.117,-6.359 23.117,-0.76C23.117,4.836 21.137,9.607 17.173,13.564C13.23,17.513 8.435,19.484 2.856,19.484C-3.436,19.484 -8.6,17.118 -12.574,12.347C-15.825,8.508 -17.434,4.144 -17.434,-0.76C-17.434,-5.741 -15.825,-10.13 -12.602,-13.914C-8.553,-18.641 -3.417,-21.019 2.856,-21.019" style="fill:white;fill-rule:nonzero;"/>
                </g>
                <g transform="matrix(1,0,0,1,244.858,267.884)">
                    <path d="M0,-34.313L0,-21.186C0,-20.191 0.099,-19.582 0.274,-19.37C0.468,-19.175 1.025,-19.063 1.954,-19.063L6.958,-19.063C9.246,-19.063 11.043,-19.186 12.368,-19.452C13.538,-19.686 14.289,-19.996 14.637,-20.407C14.987,-20.792 15.307,-21.69 15.59,-23.128C15.686,-23.675 15.962,-23.935 16.417,-23.906C16.835,-23.887 17.048,-23.59 17.048,-23.034C17.048,-22.874 17.029,-22.647 17.01,-22.316C16.815,-20.224 16.733,-18.301 16.733,-16.576C16.733,-15.262 16.783,-13.944 16.924,-12.652C16.957,-12.221 16.99,-11.913 16.99,-11.704C16.99,-11.157 16.765,-10.898 16.35,-10.898C15.896,-10.898 15.596,-11.127 15.51,-11.618L15.326,-12.521C15.056,-13.977 14.553,-14.959 13.774,-15.487C12.981,-16.01 11.669,-16.259 9.811,-16.259L2.633,-16.259C1.575,-16.259 0.86,-16.157 0.501,-15.931C0.145,-15.723 -0.036,-15.289 -0.036,-14.633L0,-13.562L0,-1.563C0,0.278 0.331,1.419 0.992,1.891C1.65,2.34 3.311,2.58 6.01,2.58C14.516,2.58 19.992,0.647 22.418,-3.195C22.66,-3.554 22.906,-3.751 23.151,-3.772C23.542,-3.789 23.747,-3.514 23.747,-2.931C23.747,-1.524 22.963,0.15 21.377,2.089C19.464,4.431 17.062,5.598 14.151,5.598C13.528,5.598 12.681,5.546 11.61,5.467C7.468,5.089 4.049,4.877 1.34,4.877C-2.461,4.877 -5.131,5.008 -6.703,5.269C-7.523,5.423 -8.09,5.494 -8.396,5.494C-9.084,5.494 -9.443,5.269 -9.443,4.805C-9.443,4.45 -9.145,4.178 -8.588,4.041L-7.349,3.683C-5.797,3.249 -5.009,1.731 -5.009,-0.881L-4.976,-2.997L-4.976,-30.539C-4.976,-33.642 -5.311,-35.728 -6.005,-36.807C-6.687,-37.883 -8.015,-38.421 -9.995,-38.421C-10.622,-38.421 -10.93,-38.625 -10.93,-39.025C-10.93,-39.61 -10.443,-39.911 -9.471,-39.911C-8.92,-39.911 -8.188,-39.855 -7.287,-39.76C-4.187,-39.407 -0.452,-39.232 3.907,-39.232C6.546,-39.232 8.888,-39.28 10.935,-39.359L15.563,-39.594C16.835,-39.627 17.605,-39.681 17.901,-39.724C18.485,-39.798 18.917,-39.855 19.203,-39.855C19.915,-39.855 20.275,-39.539 20.275,-38.911C20.275,-38.722 20.241,-38.478 20.169,-38.167C20.104,-37.864 20.024,-36.996 19.915,-35.572L19.783,-33.666C19.661,-32.421 19.566,-31.628 19.454,-31.317C19.332,-31.005 19.105,-30.835 18.722,-30.817C18.294,-30.78 18.094,-31.108 18.094,-31.793L18.094,-32.627C18.094,-33.319 17.949,-33.99 17.688,-34.61C17.289,-35.591 16.453,-36.242 15.193,-36.571C13.959,-36.907 11.633,-37.054 8.283,-37.054L3.189,-37.054C1.844,-37.054 0.972,-36.887 0.585,-36.538C0.199,-36.205 0,-35.467 0,-34.313" style="fill:white;fill-rule:nonzero;"/>
                </g>
                <g transform="matrix(1,0,0,1,287.377,273.745)">
                    <path d="M0,-46.131C2.322,-46.131 4.279,-45.801 5.892,-45.121L8.143,-44.188C8.335,-44.098 8.52,-44.055 8.708,-44.055C8.967,-44.055 9.241,-44.159 9.504,-44.371L9.952,-44.764C10.024,-44.858 10.147,-44.915 10.321,-44.915C10.865,-44.919 11.124,-44.391 11.124,-43.31C11.124,-42.942 11.274,-41.842 11.553,-40.027L12.076,-36.678C12.179,-35.96 12.231,-35.509 12.231,-35.343C12.231,-34.669 12.011,-34.321 11.533,-34.321C11.19,-34.321 10.841,-34.861 10.476,-35.895C9.704,-38.244 8.119,-40.174 5.728,-41.697C3.336,-43.222 0.665,-43.989 -2.264,-43.989C-4.598,-43.989 -6.561,-43.31 -8.122,-41.923C-9.683,-40.541 -10.477,-38.824 -10.477,-36.762C-10.477,-34.932 -9.967,-33.358 -8.942,-32.048C-8.056,-30.901 -7.084,-30.08 -6.042,-29.565C-4.984,-29.036 -2.409,-28.103 1.713,-26.735C9.721,-24.103 13.732,-19.805 13.732,-13.828C13.732,-9.774 12.25,-6.451 9.306,-3.87C6.35,-1.3 2.572,0 -2.06,0C-3.717,0 -5.566,-0.243 -7.571,-0.715C-9.571,-1.201 -11.034,-1.744 -11.965,-2.384C-12.372,-2.631 -12.631,-2.915 -12.753,-3.204C-12.875,-3.507 -13.089,-4.248 -13.331,-5.471C-13.374,-5.646 -13.656,-6.631 -14.151,-8.423C-14.726,-10.379 -14.994,-11.765 -14.994,-12.597C-14.994,-13.243 -14.78,-13.555 -14.345,-13.537C-13.933,-13.524 -13.59,-12.98 -13.274,-11.932C-12.489,-9.244 -10.853,-6.98 -8.338,-5.145C-5.825,-3.318 -3.104,-2.413 -0.165,-2.413C2.822,-2.413 5.34,-3.281 7.421,-5.06C9.477,-6.81 10.506,-8.949 10.506,-11.479C10.506,-13.871 9.563,-15.904 7.646,-17.556C6.685,-18.385 3.854,-19.611 -0.792,-21.159C-5.607,-22.789 -9.018,-24.603 -11.017,-26.566C-13.023,-28.534 -14.008,-31.102 -14.008,-34.243C-14.008,-37.75 -12.721,-40.611 -10.098,-42.83C-7.485,-45.036 -4.118,-46.131 0,-46.131" style="fill:white;fill-rule:nonzero;"/>
                </g>
                <g transform="matrix(1,0,0,1,337.877,269.975)">
                    <path d="M0,-38.105L-9.145,-38.105C-10.094,-38.105 -10.711,-37.974 -10.961,-37.707C-11.202,-37.446 -11.325,-36.813 -11.325,-35.787L-11.325,-3.853L-11.291,-2.582C-11.187,-0.05 -9.758,1.467 -7.031,1.949C-6.282,2.077 -5.9,2.308 -5.9,2.68C-5.9,3.148 -6.197,3.389 -6.8,3.389C-7.07,3.389 -7.588,3.308 -8.39,3.177C-8.825,3.115 -9.811,3.083 -11.343,3.083L-13.716,3.054L-16.264,3.083C-17.168,3.083 -17.947,3.115 -18.575,3.177C-19.806,3.308 -20.537,3.389 -20.746,3.389C-21.41,3.389 -21.731,3.148 -21.731,2.68C-21.731,2.339 -21.386,2.12 -20.669,2.044C-18.986,1.827 -17.863,1.359 -17.277,0.667C-16.684,-0.05 -16.396,-1.314 -16.396,-3.145L-16.396,-35.437L-16.419,-36.287C-16.419,-37.06 -16.542,-37.55 -16.778,-37.786C-16.993,-37.985 -17.517,-38.105 -18.356,-38.105L-26.976,-38.105C-28.725,-38.105 -29.995,-37.749 -30.784,-37.05C-31.589,-36.342 -32.193,-35.013 -32.631,-33.065C-32.839,-32.22 -33.122,-31.809 -33.504,-31.834C-33.907,-31.843 -34.095,-32.14 -34.095,-32.696C-34.095,-33.154 -33.956,-33.985 -33.711,-35.193C-33.376,-36.759 -33.216,-38.04 -33.216,-39.051C-33.216,-40.046 -33.104,-40.71 -32.885,-41.023C-32.651,-41.334 -32.16,-41.494 -31.422,-41.494L3.61,-41.494C4.8,-41.494 5.529,-41.352 5.774,-41.107C6.019,-40.839 6.143,-40.079 6.143,-38.796C6.143,-37.523 6.204,-36.587 6.298,-36.022C6.422,-35.282 6.473,-34.749 6.506,-34.432C6.525,-33.767 6.298,-33.427 5.821,-33.395C5.43,-33.362 5.18,-33.701 5.044,-34.39C4.747,-35.948 4.293,-36.936 3.676,-37.41C3.043,-37.871 1.832,-38.105 0,-38.105" style="fill:white;fill-rule:nonzero;"/>
                </g>
                <g transform="matrix(1,0,0,1,352.563,273.802)">
                    <path d="M0,-8.519C0.357,-8.519 0.74,-8.122 1.193,-7.33C1.522,-6.774 2.08,-6.221 2.887,-5.664C3.726,-5.067 4.16,-4.577 4.16,-4.179C4.16,-3.848 3.74,-3.443 2.956,-2.915C2.155,-2.429 1.575,-1.862 1.227,-1.259L0.772,-0.546C0.565,-0.189 0.25,0 -0.165,0C-0.501,0 -0.968,-0.406 -1.519,-1.188C-2.02,-1.953 -2.595,-2.524 -3.241,-2.915C-3.991,-3.388 -4.374,-3.835 -4.374,-4.245C-4.374,-4.617 -4.025,-5 -3.307,-5.406C-2.595,-5.821 -1.942,-6.482 -1.363,-7.358C-0.87,-8.132 -0.41,-8.519 0,-8.519" style="fill:white;fill-rule:nonzero;"/>
                </g>
                <g transform="matrix(1,0,0,1,397.318,266.43)">
                    <path d="M0,-32.676L0,-0.835C0,1.484 0.386,3.044 1.141,3.834C1.904,4.664 3.348,5.065 5.505,5.065L6.053,5.065C6.409,5.065 6.684,5.099 6.907,5.197C7.179,5.311 7.32,5.505 7.32,5.799C7.32,6.225 6.886,6.442 6.032,6.442L4.352,6.363L-2.802,6.307C-4.905,6.307 -6.463,6.349 -7.515,6.442C-8.592,6.532 -9.471,6.565 -10.123,6.565C-10.742,6.565 -11.026,6.374 -11.026,6.014C-11.026,5.553 -10.689,5.293 -10.024,5.22L-8.208,5.099C-5.907,4.943 -4.756,3.59 -4.756,1.019L-4.756,-29.363C-4.756,-30.722 -4.944,-31.648 -5.339,-32.138C-5.731,-32.623 -6.483,-32.868 -7.581,-32.868C-8.718,-32.868 -9.684,-32.659 -10.514,-32.227C-10.931,-32.024 -11.223,-31.931 -11.398,-31.931C-11.75,-31.931 -11.935,-32.079 -11.912,-32.411C-11.856,-33.246 -10.671,-34.014 -8.285,-34.729C-5.662,-35.506 -3.237,-36.827 -1,-38.698C-0.547,-39.061 -0.251,-39.241 -0.1,-39.241C0.324,-39.241 0.53,-39.009 0.53,-38.525C0.53,-38.232 0.437,-37.769 0.288,-37.128C0.099,-36.26 0,-34.771 0,-32.676" style="fill:white;fill-rule:nonzero;"/>
                </g>
                <g transform="matrix(1,0,0,1,425.124,272.576)">
                    <path d="M0,-42.954C-2.302,-42.954 -4.188,-42.012 -5.66,-40.132C-7.116,-38.245 -7.867,-35.83 -7.867,-32.895C-7.867,-28.844 -6.859,-25.424 -4.827,-22.613C-2.791,-19.793 -0.329,-18.386 2.548,-18.386C5.006,-18.386 6.926,-19.264 8.342,-21C9.734,-22.736 10.442,-25.123 10.442,-28.151C10.442,-32.283 9.439,-35.755 7.396,-38.631C5.354,-41.51 2.896,-42.954 0,-42.954M9.665,-19.793C9.039,-19.326 8.567,-18.982 8.235,-18.735C5.535,-16.666 2.813,-15.633 0.087,-15.633C-3.283,-15.633 -6.128,-16.953 -8.467,-19.605C-10.828,-22.256 -12.006,-25.485 -12.006,-29.284C-12.006,-33.756 -10.718,-37.481 -8.18,-40.472C-5.638,-43.468 -2.464,-44.963 1.345,-44.963C5.427,-44.963 8.832,-43.274 11.565,-39.896C14.327,-36.511 15.685,-32.288 15.685,-27.235C15.685,-23.382 14.832,-19.538 13.129,-15.708C11.43,-11.896 9.057,-8.511 5.992,-5.566C3.613,-3.266 1.096,-1.406 -1.519,-0.038C-4.153,1.32 -6.493,2.009 -8.562,2.009C-9.273,2.009 -9.634,1.772 -9.634,1.275C-9.634,0.873 -9.254,0.576 -8.514,0.419L-6.981,-0.001C-5.041,-0.484 -3.004,-1.553 -0.822,-3.213C1.345,-4.869 3.219,-6.77 4.782,-8.916C7.004,-11.972 8.629,-15.592 9.665,-19.793" style="fill:white;fill-rule:nonzero;"/>
                </g>
                <g transform="matrix(1,0,0,1,453.191,255.981)">
                    <path d="M0,-12.038C2.123,-12.349 3.829,-12.509 5.08,-12.509C9.288,-12.509 12.659,-11.302 15.18,-8.933C17.71,-6.556 18.984,-3.395 18.984,0.558C18.984,4.566 17.56,8.237 14.727,11.625C11.298,15.709 6.9,17.764 1.552,17.764C-0.321,17.764 -2.293,17.449 -4.426,16.823C-6.509,16.201 -7.566,15.614 -7.566,15.097C-7.566,14.675 -7.345,14.463 -6.92,14.434C-6.746,14.426 -6.491,14.483 -6.202,14.643C-4.178,15.549 -1.942,16.001 0.462,16.001C4.325,16.001 7.528,14.694 10.076,12.058C12.602,9.436 13.881,6.122 13.881,2.123C13.881,-1.084 12.887,-3.613 10.916,-5.424C8.933,-7.253 6.231,-8.179 2.749,-8.179C1.535,-8.179 0.532,-8.07 -0.279,-7.849C-0.836,-7.698 -1.274,-7.612 -1.58,-7.612C-1.906,-7.612 -2.189,-7.764 -2.492,-8.027C-2.765,-8.302 -2.907,-8.604 -2.907,-8.913L-2.682,-9.914L-2.355,-11.526L0.514,-24.707L0.777,-26.101C0.947,-27.094 1.552,-27.593 2.527,-27.593L14.174,-27.593C15.843,-27.593 17.023,-27.953 17.735,-28.696L18.434,-29.382C18.678,-29.621 18.924,-29.754 19.179,-29.764C19.569,-29.802 19.765,-29.584 19.726,-29.162C19.714,-28.858 19.569,-28.442 19.325,-27.876L17.646,-24.494C17.075,-23.31 15.924,-22.707 14.213,-22.707L4.564,-22.707L3.708,-22.753L2.433,-22.193C2.104,-21.809 1.797,-20.937 1.527,-19.595L0,-12.038Z" style="fill:white;fill-rule:nonzero;"/>
                </g>
                <g transform="matrix(1,0,0,1,486.493,255.981)">
                    <path d="M0,-12.038C2.128,-12.349 3.849,-12.509 5.112,-12.509C9.296,-12.509 12.669,-11.302 15.198,-8.933C17.73,-6.556 19.005,-3.395 19.005,0.558C19.005,4.566 17.585,8.237 14.745,11.625C11.32,15.709 6.921,17.764 1.57,17.764C-0.307,17.764 -2.279,17.449 -4.385,16.823C-6.51,16.201 -7.549,15.614 -7.549,15.097C-7.549,14.675 -7.331,14.463 -6.901,14.434C-6.712,14.426 -6.477,14.483 -6.185,14.643C-4.175,15.549 -1.948,16.001 0.486,16.001C4.345,16.001 7.557,14.694 10.074,12.058C12.623,9.436 13.896,6.122 13.896,2.123C13.896,-1.084 12.904,-3.613 10.921,-5.424C8.947,-7.253 6.245,-8.179 2.765,-8.179C1.558,-8.179 0.543,-8.07 -0.261,-7.849C-0.82,-7.698 -1.254,-7.612 -1.566,-7.612C-1.888,-7.612 -2.203,-7.764 -2.472,-8.027C-2.752,-8.302 -2.897,-8.604 -2.897,-8.913L-2.66,-9.914L-2.35,-11.526L0.52,-24.707L0.773,-26.101C0.976,-27.094 1.57,-27.593 2.547,-27.593L14.184,-27.593C15.861,-27.593 17.056,-27.953 17.764,-28.696L18.442,-29.382C18.688,-29.621 18.952,-29.754 19.189,-29.764C19.575,-29.802 19.769,-29.584 19.739,-29.162C19.736,-28.858 19.575,-28.442 19.314,-27.876L17.675,-24.494C17.085,-23.31 15.929,-22.707 14.222,-22.707L4.579,-22.707L3.699,-22.753L2.444,-22.193C2.128,-21.809 1.811,-20.937 1.519,-19.595L0,-12.038Z" style="fill:white;fill-rule:nonzero;"/>
                </g>
            </g>
        </g>
    </g>
</svg>